<?xml version="1.0" encoding="utf-8"?>
<!-- Generator: Adobe Illustrator 22.0.1, SVG Export Plug-In . SVG Version: 6.00 Build 0)  -->
<svg version="1.1" id="Layer_1" xmlns="http://www.w3.org/2000/svg" xmlns:xlink="http://www.w3.org/1999/xlink" x="0px" y="0px"
	 viewBox="0 0 291 159" style="enable-background:new 0 0 291 159;" xml:space="preserve">
<style type="text/css">
	.st0{fill:#11C1F3;}
	.st1{fill:#FFFFFF;}
</style>
<g id="XMLID_168_">
	<path class="st0" d="M12,111.3c0,0.3,0,0.5,0,0.8c0,5.3,4.3,9.7,9.7,9.7h39.9c9.5,0,17.2,7.7,17.2,17.2c0,5.8-2.9,11.1-7.5,14.2
		c0-0.3,0-0.5,0-0.8c0-5.3-4.3-9.7-9.7-9.7l-40.1,0c-9.4,0-17.1-7.7-17.1-17.2C4.5,119.7,7.4,114.4,12,111.3 M15.5,106.3
		c-8.1,2.6-14,10.2-14,19.2c0,11.1,9,20.1,20,20.1l40.1,0c3.7,0,6.7,3,6.7,6.7c0,1.8-0.7,3.4-1.9,4.7l1.2,1.2
		c8.2-2.5,14.1-10.2,14.1-19.2c0-11.1-9-20.1-20.1-20.1c-0.1,0-39.9,0-39.9,0c-3.7,0-6.7-3-6.7-6.7c0-1.8,0.7-3.5,1.9-4.7
		C16.4,107.1,16,106.7,15.5,106.3L15.5,106.3z"/>
</g>
<g id="XMLID_166_">
	<path class="st0" d="M42.9,3.8c4.4,0,8,3.6,8,8s-3.6,8-8,8s-8-3.6-8-8S38.5,3.8,42.9,3.8 M42.9,0.8c-6.1,0-11,4.9-11,11
		c0,6.1,4.9,11,11,11s11-4.9,11-11C53.9,5.8,49,0.8,42.9,0.8L42.9,0.8z"/>
</g>
<g id="XMLID_164_">
	<path class="st0" d="M71.4,23.2c4.7,3.2,7.5,8.5,7.5,14.2c0,6.9-5.6,12.6-12.6,12.6l-25,0c-11.4,0.2-20.7,9.6-20.7,21
		c0,11.6,9.4,21,21,21c11.3,0,20.6-8.9,21-20.2l0-0.1l0-0.1c0-0.2-0.1-1-0.2-2.1h16.4l0.1,1.7c0,20.5-16.7,37.2-37.3,37.2
		C21.1,108.2,4.3,91.5,4.3,71c0-20.6,16.7-37.3,37.3-37.3h20.1c5.3,0,9.7-4.3,9.7-9.7C71.4,23.7,71.4,23.5,71.4,23.2 M72,20.1h-4.8
		c0.8,1.1,1.3,2.5,1.3,3.9c0,3.7-3,6.7-6.7,6.7c0,0-19.7,0-20.1,0c-22.2,0-40.3,18-40.3,40.3c0,22.2,18,40.3,40.3,40.3
		c22.2,0,40.3-18,40.3-40.3c0-0.8,0-1.6-0.1-2.4h-0.1c0-0.7-0.1-1.5-0.2-2.2H59c0.5,1.8,0.6,5.2,0.6,5.2c-0.3,9.6-8.3,17.4-18,17.4
		c-9.9,0-18-8.1-18-18c0-9.9,7.9-17.9,17.7-18l25,0c8.6,0,15.5-7,15.5-15.5C81.9,30,77.9,23.6,72,20.1L72,20.1z"/>
</g>
<path class="st1" d="M133.2,90.9c-2.8,1-5.8,1.5-8.9,1.5c-11.9,0-17.8-5.8-17.8-17.3c0-10.9,5.8-16.4,17.4-16.4
	c3.2,0,6.3,0.5,9.3,1.4v2.1c-3-0.9-6-1.4-8.8-1.4c-10.3,0-15.4,4.8-15.4,14.3c0,10.1,5,15.2,15,15.2c2,0,4.3-0.3,6.8-1V77.1h2.4
	V90.9z"/>
<path class="st1" d="M140.4,80c0-8.3,3.8-12.4,11.4-12.4c7.6,0,11.4,4.1,11.4,12.4c0,8.3-3.8,12.4-11.4,12.4
	C144.2,92.4,140.4,88.3,140.4,80z M151.8,90.4c6,0,8.9-3.5,8.9-10.4c0-6.8-3-10.2-8.9-10.2c-6,0-8.9,3.4-8.9,10.2
	C142.8,86.9,145.8,90.4,151.8,90.4z"/>
<path class="st1" d="M167.7,67.8h2.8l9.1,22l8.9-22h2.7l-10.6,25.1c-1.8,4.4-4.5,7.2-8.1,8.3l-0.7-2c2.8-1,5-3.3,6.5-6.7L167.7,67.8
	z"/>
<path class="st1" d="M195.8,80c0-8.3,3.8-12.4,11.4-12.4s11.4,4.1,11.4,12.4c0,8.3-3.8,12.4-11.4,12.4
	C199.6,92.4,195.8,88.3,195.8,80z M207.2,90.4c6,0,8.9-3.5,8.9-10.4c0-6.8-3-10.2-8.9-10.2c-6,0-8.9,3.4-8.9,10.2
	C198.3,86.9,201.2,90.4,207.2,90.4z"/>
<path class="st1" d="M224.9,80c0-8.3,3.8-12.4,11.4-12.4s11.4,4.1,11.4,12.4c0,8.3-3.8,12.4-11.4,12.4
	C228.7,92.4,224.9,88.3,224.9,80z M236.3,90.4c6,0,8.9-3.5,8.9-10.4c0-6.8-3-10.2-8.9-10.2c-6,0-8.9,3.4-8.9,10.2
	C227.4,86.9,230.3,90.4,236.3,90.4z"/>
<path class="st1" d="M255.2,92.2V67.8h1.7l0.3,3.1c2.5-2,5.2-3.1,8.1-3.1c3.8,0,6.3,1.1,7.5,3.3c2.8-2.2,5.6-3.3,8.5-3.3
	c5.4,0,8.2,2.7,8.2,8.1v16.3H287V75.9c0-3.9-1.9-5.9-5.8-5.9c-3.1,0-5.6,1.1-7.6,3.2v19h-2.4V75.6c0-3.7-2-5.5-5.9-5.5
	c-2.9,0-5.4,1.1-7.6,3.2v19H255.2z"/>
</svg>
